<svg xmlns="http://www.w3.org/2000/svg" xmlns:xlink="http://www.w3.org/1999/xlink" width="500" zoomAndPan="magnify" viewBox="0 0 375 374.999991" height="500" preserveAspectRatio="xMidYMid meet" version="1.0"><defs><clipPath id="2f6a1163a5"><path d="M 0 57.421875 L 375 57.421875 L 375 317.671875 L 0 317.671875 Z M 0 57.421875 " clip-rule="nonzero"/></clipPath></defs><g clip-path="url(#2f6a1163a5)"><path fill="#231f20" d="M 367.785156 273.199219 C 367.785156 293.773438 351.054688 310.507812 330.492188 310.507812 L 44.425781 310.507812 C 23.859375 310.507812 7.128906 293.773438 7.128906 273.199219 L 7.128906 101.878906 C 7.128906 81.308594 23.859375 64.570312 44.425781 64.570312 L 330.492188 64.570312 C 351.054688 64.570312 367.785156 81.308594 367.785156 101.878906 Z M 330.492188 57.414062 L 44.425781 57.414062 C 19.914062 57.414062 -0.0195312 77.363281 -0.0195312 101.878906 L -0.0195312 273.199219 C -0.0195312 297.71875 19.914062 317.664062 44.425781 317.664062 L 330.492188 317.664062 C 354.996094 317.664062 374.9375 297.71875 374.9375 273.199219 L 374.9375 101.878906 C 374.9375 77.363281 354.996094 57.414062 330.492188 57.414062 " fill-opacity="1" fill-rule="nonzero"/></g><path fill="#231f20" d="M 353.84375 273.199219 C 353.84375 286.082031 343.367188 296.5625 330.492188 296.5625 L 44.425781 296.5625 C 31.542969 296.5625 21.070312 286.082031 21.070312 273.199219 L 21.070312 101.878906 C 21.070312 89 31.542969 78.515625 44.425781 78.515625 L 330.492188 78.515625 C 343.367188 78.515625 353.84375 89 353.84375 101.878906 Z M 330.492188 71.363281 L 44.425781 71.363281 C 27.601562 71.363281 13.917969 85.050781 13.917969 101.878906 L 13.917969 273.199219 C 13.917969 290.027344 27.601562 303.71875 44.425781 303.71875 L 330.492188 303.71875 C 347.3125 303.71875 360.996094 290.027344 360.996094 273.199219 L 360.996094 101.878906 C 360.996094 85.050781 347.3125 71.363281 330.492188 71.363281 " fill-opacity="1" fill-rule="nonzero"/><path fill="#231f20" d="M 142.480469 226.351562 C 142.480469 229.363281 140.035156 231.808594 137.023438 231.808594 L 60.335938 231.808594 C 57.320312 231.808594 54.875 229.363281 54.875 226.351562 L 54.875 192.988281 C 54.875 183.667969 62.5 176.042969 71.816406 176.042969 L 125.539062 176.042969 C 134.855469 176.042969 142.480469 183.667969 142.480469 192.988281 Z M 98.679688 104.339844 C 115.628906 104.339844 129.371094 118.085938 129.371094 135.046875 C 129.371094 152.003906 115.628906 165.75 98.679688 165.75 C 81.726562 165.75 67.984375 152.003906 67.984375 135.046875 C 67.984375 118.085938 81.726562 104.339844 98.679688 104.339844 Z M 158.0625 234.03125 L 158.0625 102.121094 C 158.0625 97.671875 154.421875 94.027344 149.972656 94.027344 L 47.382812 94.027344 C 42.933594 94.027344 39.292969 97.671875 39.292969 102.121094 L 39.292969 234.03125 C 39.292969 238.480469 42.933594 242.121094 47.382812 242.121094 L 149.972656 242.121094 C 154.421875 242.121094 158.0625 238.480469 158.0625 234.03125 " fill-opacity="1" fill-rule="nonzero"/><path fill="#231f20" d="M 174.566406 104.726562 L 217.742188 104.726562 C 219.71875 104.726562 221.316406 103.121094 221.316406 101.148438 C 221.316406 99.171875 219.71875 97.570312 217.742188 97.570312 L 174.566406 97.570312 C 172.59375 97.570312 170.988281 99.171875 170.988281 101.148438 C 170.988281 103.121094 172.59375 104.726562 174.566406 104.726562 " fill-opacity="1" fill-rule="nonzero"/><path fill="#231f20" d="M 233.503906 104.726562 L 276.679688 104.726562 C 278.65625 104.726562 280.257812 103.121094 280.257812 101.148438 C 280.257812 99.171875 278.65625 97.570312 276.679688 97.570312 L 233.503906 97.570312 C 231.53125 97.570312 229.929688 99.171875 229.929688 101.148438 C 229.929688 103.121094 231.53125 104.726562 233.503906 104.726562 " fill-opacity="1" fill-rule="nonzero"/><path fill="#231f20" d="M 335.621094 97.570312 L 292.441406 97.570312 C 290.46875 97.570312 288.867188 99.171875 288.867188 101.148438 C 288.867188 103.121094 290.46875 104.726562 292.441406 104.726562 L 335.621094 104.726562 C 337.59375 104.726562 339.195312 103.121094 339.195312 101.148438 C 339.195312 99.171875 337.59375 97.570312 335.621094 97.570312 " fill-opacity="1" fill-rule="nonzero"/><path fill="#231f20" d="M 191.851562 235.007812 C 191.851562 233.03125 190.246094 231.429688 188.273438 231.429688 L 176.28125 231.429688 C 174.304688 231.429688 172.703125 233.03125 172.703125 235.007812 C 172.703125 236.980469 174.304688 238.585938 176.28125 238.585938 L 188.273438 238.585938 C 190.246094 238.585938 191.851562 236.980469 191.851562 235.007812 " fill-opacity="1" fill-rule="nonzero"/><path fill="#231f20" d="M 217.742188 204.65625 L 174.566406 204.65625 C 172.59375 204.65625 170.988281 206.257812 170.988281 208.234375 C 170.988281 210.207031 172.59375 211.808594 174.566406 211.808594 L 217.742188 211.808594 C 219.71875 211.808594 221.316406 210.207031 221.316406 208.234375 C 221.316406 206.257812 219.71875 204.65625 217.742188 204.65625 " fill-opacity="1" fill-rule="nonzero"/><path fill="#231f20" d="M 246.640625 204.65625 L 234.648438 204.65625 C 232.675781 204.65625 231.070312 206.257812 231.070312 208.234375 C 231.070312 210.207031 232.675781 211.808594 234.648438 211.808594 L 246.640625 211.808594 C 248.617188 211.808594 250.214844 210.207031 250.214844 208.234375 C 250.214844 206.257812 248.617188 204.65625 246.640625 204.65625 " fill-opacity="1" fill-rule="nonzero"/><path fill="#231f20" d="M 306.722656 204.65625 L 263.546875 204.65625 C 261.570312 204.65625 259.96875 206.257812 259.96875 208.234375 C 259.96875 210.207031 261.570312 211.808594 263.546875 211.808594 L 306.722656 211.808594 C 308.695312 211.808594 310.296875 210.207031 310.296875 208.234375 C 310.296875 206.257812 308.695312 204.65625 306.722656 204.65625 " fill-opacity="1" fill-rule="nonzero"/><path fill="#231f20" d="M 335.621094 204.65625 L 323.625 204.65625 C 321.652344 204.65625 320.050781 206.257812 320.050781 208.234375 C 320.050781 210.207031 321.652344 211.808594 323.625 211.808594 L 335.621094 211.808594 C 337.59375 211.808594 339.195312 210.207031 339.195312 208.234375 C 339.195312 206.257812 337.59375 204.65625 335.621094 204.65625 " fill-opacity="1" fill-rule="nonzero"/><path fill="#231f20" d="M 174.566406 185.039062 L 186.5625 185.039062 C 188.535156 185.039062 190.136719 183.4375 190.136719 181.460938 C 190.136719 179.488281 188.535156 177.882812 186.5625 177.882812 L 174.566406 177.882812 C 172.59375 177.882812 170.988281 179.488281 170.988281 181.460938 C 170.988281 183.4375 172.59375 185.039062 174.566406 185.039062 " fill-opacity="1" fill-rule="nonzero"/><path fill="#231f20" d="M 239.824219 181.460938 C 239.824219 179.488281 238.222656 177.882812 236.246094 177.882812 L 224.253906 177.882812 C 222.277344 177.882812 220.679688 179.488281 220.679688 181.460938 C 220.679688 183.4375 222.277344 185.039062 224.253906 185.039062 L 236.246094 185.039062 C 238.222656 185.039062 239.824219 183.4375 239.824219 181.460938 " fill-opacity="1" fill-rule="nonzero"/><path fill="#231f20" d="M 301.523438 124.339844 L 258.347656 124.339844 C 256.375 124.339844 254.773438 125.945312 254.773438 127.917969 C 254.773438 129.894531 256.375 131.496094 258.347656 131.496094 L 301.523438 131.496094 C 303.5 131.496094 305.101562 129.894531 305.101562 127.917969 C 305.101562 125.945312 303.5 124.339844 301.523438 124.339844 " fill-opacity="1" fill-rule="nonzero"/><path fill="#231f20" d="M 174.566406 131.496094 L 186.5625 131.496094 C 188.535156 131.496094 190.136719 129.894531 190.136719 127.917969 C 190.136719 125.945312 188.535156 124.339844 186.5625 124.339844 L 174.566406 124.339844 C 172.59375 124.339844 170.988281 125.945312 170.988281 127.917969 C 170.988281 129.894531 172.59375 131.496094 174.566406 131.496094 " fill-opacity="1" fill-rule="nonzero"/><path fill="#231f20" d="M 224.253906 131.496094 L 236.246094 131.496094 C 238.222656 131.496094 239.824219 129.894531 239.824219 127.917969 C 239.824219 125.945312 238.222656 124.339844 236.246094 124.339844 L 224.253906 124.339844 C 222.277344 124.339844 220.679688 125.945312 220.679688 127.917969 C 220.679688 129.894531 222.277344 131.496094 224.253906 131.496094 " fill-opacity="1" fill-rule="nonzero"/><path fill="#231f20" d="M 335.621094 124.339844 L 323.625 124.339844 C 321.652344 124.339844 320.050781 125.945312 320.050781 127.917969 C 320.050781 129.894531 321.652344 131.496094 323.625 131.496094 L 335.621094 131.496094 C 337.59375 131.496094 339.195312 129.894531 339.195312 127.917969 C 339.195312 125.945312 337.59375 124.339844 335.621094 124.339844 " fill-opacity="1" fill-rule="nonzero"/><path fill="#231f20" d="M 301.523438 151.113281 L 258.347656 151.113281 C 256.375 151.113281 254.773438 152.714844 254.773438 154.691406 C 254.773438 156.664062 256.375 158.265625 258.347656 158.265625 L 301.523438 158.265625 C 303.5 158.265625 305.101562 156.664062 305.101562 154.691406 C 305.101562 152.714844 303.5 151.113281 301.523438 151.113281 " fill-opacity="1" fill-rule="nonzero"/><path fill="#231f20" d="M 174.566406 158.265625 L 186.5625 158.265625 C 188.535156 158.265625 190.136719 156.664062 190.136719 154.691406 C 190.136719 152.714844 188.535156 151.113281 186.5625 151.113281 L 174.566406 151.113281 C 172.59375 151.113281 170.988281 152.714844 170.988281 154.691406 C 170.988281 156.664062 172.59375 158.265625 174.566406 158.265625 " fill-opacity="1" fill-rule="nonzero"/><path fill="#231f20" d="M 236.246094 151.113281 L 224.253906 151.113281 C 222.277344 151.113281 220.679688 152.714844 220.679688 154.691406 C 220.679688 156.664062 222.277344 158.265625 224.253906 158.265625 L 236.246094 158.265625 C 238.222656 158.265625 239.824219 156.664062 239.824219 154.691406 C 239.824219 152.714844 238.222656 151.113281 236.246094 151.113281 " fill-opacity="1" fill-rule="nonzero"/><path fill="#231f20" d="M 335.621094 151.113281 L 323.625 151.113281 C 321.652344 151.113281 320.050781 152.714844 320.050781 154.691406 C 320.050781 156.664062 321.652344 158.265625 323.625 158.265625 L 335.621094 158.265625 C 337.59375 158.265625 339.195312 156.664062 339.195312 154.691406 C 339.195312 152.714844 337.59375 151.113281 335.621094 151.113281 " fill-opacity="1" fill-rule="nonzero"/><path fill="#231f20" d="M 38.71875 276.105469 L 43.277344 276.105469 L 43.277344 259.941406 L 38.71875 259.941406 L 38.71875 276.105469 " fill-opacity="1" fill-rule="nonzero"/><path fill="#231f20" d="M 47.925781 276.105469 L 73.292969 276.105469 L 73.292969 259.941406 L 47.925781 259.941406 L 47.925781 276.105469 " fill-opacity="1" fill-rule="nonzero"/><path fill="#231f20" d="M 80.148438 276.105469 L 89.640625 276.105469 L 89.640625 259.941406 L 80.148438 259.941406 L 80.148438 276.105469 " fill-opacity="1" fill-rule="nonzero"/><path fill="#231f20" d="M 94.089844 276.105469 L 97.339844 276.105469 L 97.339844 259.941406 L 94.089844 259.941406 L 94.089844 276.105469 " fill-opacity="1" fill-rule="nonzero"/><path fill="#231f20" d="M 104.9375 276.105469 L 108.1875 276.105469 L 108.1875 259.941406 L 104.9375 259.941406 L 104.9375 276.105469 " fill-opacity="1" fill-rule="nonzero"/><path fill="#231f20" d="M 112.152344 276.105469 L 116.710938 276.105469 L 116.710938 259.941406 L 112.152344 259.941406 L 112.152344 276.105469 " fill-opacity="1" fill-rule="nonzero"/><path fill="#231f20" d="M 121.359375 276.105469 L 146.722656 276.105469 L 146.722656 259.941406 L 121.359375 259.941406 L 121.359375 276.105469 " fill-opacity="1" fill-rule="nonzero"/><path fill="#231f20" d="M 153.582031 276.105469 L 160.960938 276.105469 L 160.960938 259.941406 L 153.582031 259.941406 L 153.582031 276.105469 " fill-opacity="1" fill-rule="nonzero"/><path fill="#231f20" d="M 164.421875 276.105469 L 166.945312 276.105469 L 166.945312 259.941406 L 164.421875 259.941406 L 164.421875 276.105469 " fill-opacity="1" fill-rule="nonzero"/><path fill="#231f20" d="M 172.855469 276.105469 L 175.378906 276.105469 L 175.378906 259.941406 L 172.855469 259.941406 L 172.855469 276.105469 " fill-opacity="1" fill-rule="nonzero"/><path fill="#231f20" d="M 215.859375 276.105469 L 217.878906 276.105469 L 217.878906 259.941406 L 215.859375 259.941406 L 215.859375 276.105469 " fill-opacity="1" fill-rule="nonzero"/><path fill="#231f20" d="M 202.558594 276.105469 L 213.800781 276.105469 L 213.800781 259.941406 L 202.558594 259.941406 L 202.558594 276.105469 " fill-opacity="1" fill-rule="nonzero"/><path fill="#231f20" d="M 195.3125 276.105469 L 199.515625 276.105469 L 199.515625 259.941406 L 195.3125 259.941406 L 195.3125 276.105469 " fill-opacity="1" fill-rule="nonzero"/><path fill="#231f20" d="M 189.328125 276.105469 L 191.851562 276.105469 L 191.851562 259.941406 L 189.328125 259.941406 L 189.328125 276.105469 " fill-opacity="1" fill-rule="nonzero"/><path fill="#231f20" d="M 180.890625 276.105469 L 183.417969 276.105469 L 183.417969 259.941406 L 180.890625 259.941406 L 180.890625 276.105469 " fill-opacity="1" fill-rule="nonzero"/><path fill="#231f20" d="M 220.492188 276.105469 L 222.578125 276.105469 L 222.578125 259.941406 L 220.492188 259.941406 L 220.492188 276.105469 " fill-opacity="1" fill-rule="nonzero"/><path fill="#231f20" d="M 224.703125 276.105469 L 236.300781 276.105469 L 236.300781 259.941406 L 224.703125 259.941406 L 224.703125 276.105469 " fill-opacity="1" fill-rule="nonzero"/><path fill="#231f20" d="M 239.433594 276.105469 L 243.777344 276.105469 L 243.777344 259.941406 L 239.433594 259.941406 L 239.433594 276.105469 " fill-opacity="1" fill-rule="nonzero"/><path fill="#231f20" d="M 245.8125 276.105469 L 247.296875 276.105469 L 247.296875 259.941406 L 245.8125 259.941406 L 245.8125 276.105469 " fill-opacity="1" fill-rule="nonzero"/><path fill="#231f20" d="M 250.769531 276.105469 L 252.253906 276.105469 L 252.253906 259.941406 L 250.769531 259.941406 L 250.769531 276.105469 " fill-opacity="1" fill-rule="nonzero"/><path fill="#231f20" d="M 254.070312 276.105469 L 256.15625 276.105469 L 256.15625 259.941406 L 254.070312 259.941406 L 254.070312 276.105469 " fill-opacity="1" fill-rule="nonzero"/><path fill="#231f20" d="M 258.277344 276.105469 L 269.875 276.105469 L 269.875 259.941406 L 258.277344 259.941406 L 258.277344 276.105469 " fill-opacity="1" fill-rule="nonzero"/><path fill="#231f20" d="M 328.816406 276.105469 L 336.195312 276.105469 L 336.195312 259.941406 L 328.816406 259.941406 L 328.816406 276.105469 " fill-opacity="1" fill-rule="nonzero"/><path fill="#231f20" d="M 322.832031 276.105469 L 325.355469 276.105469 L 325.355469 259.941406 L 322.832031 259.941406 L 322.832031 276.105469 " fill-opacity="1" fill-rule="nonzero"/><path fill="#231f20" d="M 314.398438 276.105469 L 316.921875 276.105469 L 316.921875 259.941406 L 314.398438 259.941406 L 314.398438 276.105469 " fill-opacity="1" fill-rule="nonzero"/><path fill="#231f20" d="M 271.894531 276.105469 L 273.917969 276.105469 L 273.917969 259.941406 L 271.894531 259.941406 L 271.894531 276.105469 " fill-opacity="1" fill-rule="nonzero"/><path fill="#231f20" d="M 275.980469 276.105469 L 287.21875 276.105469 L 287.21875 259.941406 L 275.980469 259.941406 L 275.980469 276.105469 " fill-opacity="1" fill-rule="nonzero"/><path fill="#231f20" d="M 290.261719 276.105469 L 294.46875 276.105469 L 294.46875 259.941406 L 290.261719 259.941406 L 290.261719 276.105469 " fill-opacity="1" fill-rule="nonzero"/><path fill="#231f20" d="M 297.929688 276.105469 L 300.449219 276.105469 L 300.449219 259.941406 L 297.929688 259.941406 L 297.929688 276.105469 " fill-opacity="1" fill-rule="nonzero"/><path fill="#231f20" d="M 306.363281 276.105469 L 308.882812 276.105469 L 308.882812 259.941406 L 306.363281 259.941406 L 306.363281 276.105469 " fill-opacity="1" fill-rule="nonzero"/></svg>