<?xml version="1.0" encoding="iso-8859-1"?>
<!-- Uploaded to: SVG Repo, www.svgrepo.com, Generator: SVG Repo Mixer Tools -->
<svg height="800px" width="800px" version="1.1" id="Layer_1" xmlns="http://www.w3.org/2000/svg" xmlns:xlink="http://www.w3.org/1999/xlink" 
	 viewBox="0 0 512 512" xml:space="preserve">
<g transform="translate(1 1)">
	<path style="fill:#FFDD09;" d="M502.467,255c0,136.533-110.933,247.467-247.467,247.467S7.533,391.533,7.533,255
		S118.467,7.533,255,7.533S502.467,118.467,502.467,255"/>
	<path style="fill:#FD9808;" d="M255,7.533c-4.267,0-8.533,0-12.8,0C372.76,14.36,476.867,122.733,476.867,255
		S372.76,495.64,242.2,502.467c4.267,0,8.533,0,12.8,0c136.533,0,247.467-110.933,247.467-247.467S391.533,7.533,255,7.533"/>
	<path style="fill:#FFFFFF;" d="M255,7.533c4.267,0,8.533,0,12.8,0C137.24,14.36,33.133,122.733,33.133,255
		S137.24,495.64,267.8,502.467c-4.267,0-8.533,0-12.8,0C118.467,502.467,7.533,391.533,7.533,255S118.467,7.533,255,7.533"/>
	<path style="fill:#54C9FD;" d="M374.467,255c0,65.707-53.76,119.467-119.467,119.467S135.533,320.707,135.533,255
		S189.293,135.533,255,135.533S374.467,189.293,374.467,255"/>
	<path style="fill:#33A9F8;" d="M255,135.533c-2.56,0-5.973,0-8.533,0.853C308.76,140.653,357.4,192.707,357.4,255
		s-48.64,114.347-110.933,119.467c2.56,0,5.973,0,8.533,0c65.707,0,119.467-53.76,119.467-119.467S320.707,135.533,255,135.533"/>
	<g>
		<path style="fill:#FFDD09;" d="M263.533,203.8h-17.067c-5.12,0-8.533-3.413-8.533-8.533V178.2c0-5.12,3.413-8.533,8.533-8.533
			h17.067c5.12,0,8.533,3.413,8.533,8.533v17.067C272.067,200.387,268.653,203.8,263.533,203.8"/>
		<path style="fill:#FFDD09;" d="M263.533,340.333h-17.067c-5.12,0-8.533-3.413-8.533-8.533v-17.067c0-5.12,3.413-8.533,8.533-8.533
			h17.067c5.12,0,8.533,3.413,8.533,8.533V331.8C272.067,336.92,268.653,340.333,263.533,340.333"/>
		<path style="fill:#FFDD09;" d="M331.8,272.067h-17.067c-5.12,0-8.533-3.413-8.533-8.533v-17.067c0-5.12,3.413-8.533,8.533-8.533
			H331.8c5.12,0,8.533,3.413,8.533,8.533v17.067C340.333,268.653,336.92,272.067,331.8,272.067"/>
		<path style="fill:#FFDD09;" d="M195.267,272.067H178.2c-5.12,0-8.533-3.413-8.533-8.533v-17.067c0-5.12,3.413-8.533,8.533-8.533
			h17.067c5.12,0,8.533,3.413,8.533,8.533v17.067C203.8,268.653,200.387,272.067,195.267,272.067"/>
	</g>
	<path d="M255,511C114.2,511-1,395.8-1,255S114.2-1,255-1s256,115.2,256,256S395.8,511,255,511z M255,16.067
		C123.587,16.067,16.067,123.587,16.067,255S123.587,493.933,255,493.933S493.933,386.413,493.933,255S386.413,16.067,255,16.067z"
		/>
	<path d="M255,383c-70.827,0-128-57.173-128-128s57.173-128,128-128s128,57.173,128,128S325.827,383,255,383z M255,144.067
		c-61.44,0-110.933,49.493-110.933,110.933S193.56,365.933,255,365.933S365.933,316.44,365.933,255S316.44,144.067,255,144.067z"/>
	<path d="M263.533,212.333h-17.067c-9.387,0-17.067-7.68-17.067-17.067V178.2c0-9.387,7.68-17.067,17.067-17.067h17.067
		c9.387,0,17.067,7.68,17.067,17.067v17.067C280.6,204.653,272.92,212.333,263.533,212.333z M246.467,178.2v17.067h17.067V178.2
		H246.467z"/>
	<path d="M263.533,348.867h-17.067c-9.387,0-17.067-7.68-17.067-17.067v-17.067c0-9.387,7.68-17.067,17.067-17.067h17.067
		c9.387,0,17.067,7.68,17.067,17.067V331.8C280.6,341.187,272.92,348.867,263.533,348.867z M246.467,314.733V331.8h17.067v-17.067
		H246.467z"/>
	<path d="M331.8,280.6h-17.067c-9.387,0-17.067-7.68-17.067-17.067v-17.067c0-9.387,7.68-17.067,17.067-17.067H331.8
		c9.387,0,17.067,7.68,17.067,17.067v17.067C348.867,272.92,341.187,280.6,331.8,280.6z M314.733,246.467v17.067H331.8v-17.067
		H314.733z"/>
	<path d="M195.267,280.6H178.2c-9.387,0-17.067-7.68-17.067-17.067v-17.067c0-9.387,7.68-17.067,17.067-17.067h17.067
		c9.387,0,17.067,7.68,17.067,17.067v17.067C212.333,272.92,204.653,280.6,195.267,280.6z M195.267,263.533v8.533V263.533
		L195.267,263.533z M178.2,246.467v17.067h17.067v-17.067H178.2z"/>
	<path d="M255,144.067c-5.12,0-8.533-3.413-8.533-8.533c0-50.347-46.933-93.867-101.547-93.867c-5.12,0-8.533-3.413-8.533-8.533
		S139.8,24.6,144.92,24.6c63.147,0,118.613,52.053,118.613,110.933C263.533,140.653,260.12,144.067,255,144.067z"/>
	<path d="M33.133,373.613c-5.12,0-8.533-3.413-8.533-8.533c0-63.147,52.053-118.613,110.933-118.613c5.12,0,8.533,3.413,8.533,8.533
		s-3.413,8.533-8.533,8.533c-50.347,0-93.867,46.933-93.867,101.547C41.667,369.347,38.253,373.613,33.133,373.613z"/>
	<path d="M365.08,485.4c-63.147,0-118.613-52.053-118.613-110.933c0-5.12,3.413-8.533,8.533-8.533s8.533,3.413,8.533,8.533
		c0,50.347,46.933,93.867,101.547,93.867c5.12,0,8.533,3.413,8.533,8.533C373.613,481.987,369.347,485.4,365.08,485.4z"/>
	<path d="M374.467,263.533c-5.12,0-8.533-3.413-8.533-8.533s3.413-8.533,8.533-8.533c50.347,0,93.867-46.933,93.867-101.547
		c0-5.12,3.413-8.533,8.533-8.533c5.12,0,8.533,3.413,8.533,8.533C485.4,208.067,433.347,263.533,374.467,263.533z"/>
	<path d="M383,92.867c-5.12,0-8.533-3.413-8.533-8.533v-40.96c0-5.12,3.413-8.533,8.533-8.533c5.12,0,8.533,3.413,8.533,8.533v40.96
		C391.533,89.453,388.12,92.867,383,92.867z"/>
	<path d="M348.867,127c-5.12,0-8.533-3.413-8.533-8.533V84.333c0-5.12,3.413-8.533,8.533-8.533c5.12,0,8.533,3.413,8.533,8.533
		v34.133C357.4,123.587,353.987,127,348.867,127z"/>
	<path d="M383,92.867h-34.133c-5.12,0-8.533-3.413-8.533-8.533s3.413-8.533,8.533-8.533H383c5.12,0,8.533,3.413,8.533,8.533
		S388.12,92.867,383,92.867z"/>
	<path d="M348.867,127h-25.6c-5.12,0-8.533-3.413-8.533-8.533s3.413-8.533,8.533-8.533h25.6c5.12,0,8.533,3.413,8.533,8.533
		S353.987,127,348.867,127z"/>
</g>
</svg>